<?xml version="1.0" encoding="utf-8"?>
<svg xmlns="http://www.w3.org/2000/svg" viewBox="128.0463 107.303 234.4 234.4" width="234.4px" height="234.4px"><g transform="matrix(1, 0, 0, 1, -4.753669738769531, -25.496999740600586)" id="object-0"><circle fill="#FFFFFF" cx="250" cy="250" r="117.2"/><path fill="#990000" d="M 278.4 279.8 C 276.8 281.6 275 283.4 273.2 285 L 257.9 194.9 C 258.7 195 259.4 195 260.2 195.1 L 278.4 279.8 M 292.4 247 L 271.4 196.9 C 270.6 196.7 269.8 196.6 269 196.4 L 291.3 255.5 C 291.8 252.7 292.2 249.9 292.4 247 M 261.2 293 C 262.6 292.3 263.9 291.6 265.2 290.8 L 254.8 194.7 C 254 194.7 253.2 194.7 252.3 194.6 L 258.6 294.2 C 259.5 293.8 260.4 293.5 261.2 293 M 287.9 265.4 L 265.7 195.9 C 264.9 195.8 264.1 195.7 263.4 195.6 L 284.4 272 C 285.7 269.8 286.8 267.6 287.9 265.4 M 292.5 205.3 C 287.2 202.1 281.2 199.6 274.8 197.8 L 292.5 234.9 L 292.5 205.3 Z M 238.9 236 L 231.1 236 L 228.7 228.6 L 226.3 236 L 218.5 236 L 224.8 240.6 L 222.4 248 L 228.7 243.4 L 235 248 L 232.6 240.6 L 238.9 236 Z M 205.9 205.3 C 218.1 198.4 233.6 194.7 249.2 194.6 L 249.2 297.4 C 244.8 296.4 241.1 295 237.1 293 C 219 284.1 205.6 264.7 205.9 243.9 L 205.9 205.3 M 260 152 C 259.9 152.9 259.3 153.5 258.2 153.4 L 255.8 153.2 L 256 150.2 L 258.4 150.4 C 259.5 150.5 260 151.2 260 152 M 296.3 171.3 C 298 172.3 299.5 171.5 301 169 C 302.5 166.5 302.5 164.8 300.8 163.8 C 299.1 162.8 297.6 163.6 296.1 166.1 C 294.6 168.6 294.6 170.3 296.3 171.3 M 259.8 157.3 C 259.9 156.1 259.3 155.5 258 155.4 L 255.6 155.2 L 255.3 158.8 L 257.7 159 C 259.1 159 259.7 158.5 259.8 157.3 M 284 165.2 C 285.8 165.9 287.2 164.9 288.3 162.2 C 289.4 159.5 289.1 157.8 287.3 157.1 C 285.5 156.4 284.1 157.4 283 160.1 C 281.8 162.8 282.1 164.5 284 165.2 M 274.6 154.9 C 274.9 153.8 274.3 153 273 152.7 L 270.9 152.2 L 270.1 155.6 L 271.8 156 C 273.6 156.5 274.3 156 274.6 154.9 M 212 167 C 213.8 166.2 214 164.5 212.7 161.8 C 211.5 159.2 210.1 158.2 208.3 159 C 206.5 159.8 206.3 161.5 207.6 164.2 C 208.8 166.8 210.2 167.8 212 167 M 346.8 255.4 L 346.9 253.3 L 352.1 251.1 L 352.2 248.4 L 346.5 251 C 346.1 249.5 344.9 248.6 343.3 248.6 C 341.2 248.5 339.5 249.6 339.4 252.5 L 339.2 257.5 L 351.8 257.9 L 351.9 255.5 L 346.8 255.4 Z M 350.5 268.7 C 351.1 265.3 349.1 263.1 345.1 262.3 C 341.1 261.6 338.4 262.9 337.8 266.3 C 337.2 269.7 339.2 271.9 343.2 272.7 C 347.2 273.5 349.9 272.1 350.5 268.7 M 347.2 281.2 L 342.4 279.6 L 336.3 273.9 L 335.5 276.3 L 339.5 279.9 L 334.1 280.4 L 333.3 282.8 L 341.6 281.9 L 346.4 283.5 L 347.2 281.2 Z M 339.2 299.7 L 329.8 290.9 L 328.6 292.8 L 334.9 298.7 L 326.8 295.7 L 325.5 297.8 L 331.8 303.8 L 323.7 300.7 L 322.5 302.6 L 334.6 306.9 L 335.9 304.8 L 329.2 298.6 L 337.8 301.7 L 339.2 299.7 Z M 330.3 313.1 L 328.8 311.8 L 324.8 316.4 L 322.1 314.1 L 324.9 310.8 L 323.4 309.5 L 320.6 312.8 L 318.3 310.8 L 322.2 306.3 L 320.7 305 L 315.3 311.3 L 324.8 319.5 L 330.3 313.1 Z M 320.4 324 L 312.2 314.5 L 310.5 316 L 316.1 322.5 L 306.7 319.2 L 304.8 320.8 L 313 330.3 L 314.7 328.8 L 308.8 322 L 318.6 325.4 L 320.4 324 Z M 295.1 335.3 L 298.8 333.3 L 297.8 331.5 L 294.1 333.5 L 292.7 330.9 L 297.6 328.2 L 296.6 326.4 L 289.6 330.2 L 295.6 341.3 L 297.7 340.2 L 295.1 335.3 Z M 286.4 345.5 C 289.6 344.3 290.5 341.4 289 337.6 C 287.5 333.8 285 332.2 281.8 333.4 C 278.6 334.6 277.7 337.5 279.2 341.3 C 280.6 345.2 283.2 346.7 286.4 345.5 M 266.1 345.7 L 268.4 337.7 L 265.9 338.1 L 264.5 343.4 L 261.6 338.8 L 259.1 339.2 L 263.7 346.1 L 264.5 351.1 L 266.9 350.7 L 266.1 345.7 Z M 253.3 341.4 L 256.6 341.3 L 256.6 339.3 L 247.6 339.5 L 247.6 341.5 L 250.9 341.4 L 251.1 352 L 253.5 351.9 L 253.3 341.4 Z M 243.8 339.2 L 241.4 339 L 240.4 351.5 L 242.8 351.7 L 243.8 339.2 Z M 235.9 347.4 C 236.7 343.4 230.2 342.6 230.6 340.5 C 230.8 339.5 231.6 339.3 232.6 339.5 C 233.7 339.7 234.3 340.5 234.5 341.5 L 236.8 341.2 C 236.4 339.3 235 338 233 337.6 C 230.9 337.2 228.8 338.1 228.4 340.3 C 227.7 344.1 234.1 344.8 233.7 347.3 C 233.5 348.5 232.5 348.8 231.3 348.5 C 229.9 348.2 229.3 347.3 229 346.1 L 226.9 346.6 C 227.3 348.5 228.9 350 231 350.4 C 233.6 350.9 235.4 350 235.9 347.4 M 224.3 339.7 C 224.9 337.7 224.4 335.8 221.7 334.9 L 216.9 333.3 L 212.9 345.2 L 215.2 346 L 216.8 341.1 L 218.8 341.8 L 219.4 347.4 L 221.9 348.3 L 221.1 342.1 C 222.7 342.1 223.9 341.2 224.3 339.7 M 205.8 333.5 L 207.2 330.8 L 212.5 333.5 L 213.4 331.7 L 206 327.9 L 200.3 339.1 L 207.9 343 L 208.8 341.2 L 203.4 338.4 L 205 335.3 L 208.8 337.3 L 209.7 335.5 L 205.8 333.5 Z M 193.2 334.7 L 203.1 326.2 L 201.2 324.9 L 194 331.2 L 197.4 322.3 L 195.5 321 L 191 333.2 L 193.2 334.7 Z M 184.8 328.5 L 193 318.9 L 191.2 317.3 L 183 326.9 L 184.8 328.5 Z M 178.4 322.8 L 187.6 314.3 L 186.1 312.6 L 179.8 318.4 L 182.7 308.9 L 181 307.1 L 171.8 315.6 L 173.3 317.3 L 179.9 311.2 L 176.8 321.1 L 178.4 322.8 Z M 165.5 307.5 C 166.9 309.6 169.2 310.8 172.2 308.7 L 178.7 304.3 L 177.3 302.3 L 170.7 306.8 C 169 307.9 168 307.7 167.1 306.3 C 166.2 305 166.3 303.9 168 302.7 L 174.6 298.2 L 173.2 296.2 L 166.7 300.6 C 163.8 302.8 164.1 305.4 165.5 307.5 M 161.6 283.3 L 164.4 282.2 L 166.6 287.7 L 168.5 287 L 165.4 279.3 L 153.7 283.9 L 156.8 291.8 L 158.7 291.1 L 156.4 285.4 L 159.7 284.1 L 161.3 288.1 L 163.2 287.4 L 161.6 283.3 Z M 151.3 275.8 L 161.6 273.2 L 162.4 276.4 L 164.4 275.9 L 162.2 267.2 L 160.2 267.7 L 161 270.9 L 150.7 273.5 L 151.3 275.8 Z M 149.4 267.7 L 161.5 262.6 L 161.1 259.6 L 148.2 257.5 L 148.5 259.9 L 151.3 260.3 L 151.8 264.2 L 149.2 265.2 L 149.4 267.7 Z M 148 251.9 L 158.6 251.7 L 158.7 255 L 160.7 255 L 160.6 246 L 158.6 246 L 158.7 249.3 L 148 249.5 L 148 251.9 Z M 148.6 237.5 C 148.3 240.3 149.3 242 151.9 242.3 C 155.9 242.8 156.3 236.3 158.4 236.6 C 159.4 236.7 159.7 237.5 159.6 238.5 C 159.5 239.6 158.7 240.3 157.7 240.5 L 158.1 242.8 C 160 242.3 161.2 240.7 161.5 238.7 C 161.8 236.5 160.7 234.5 158.5 234.2 C 154.7 233.7 154.4 240.2 151.9 239.9 C 150.7 239.8 150.4 238.8 150.5 237.6 C 150.7 236.2 151.5 235.5 152.8 235.1 L 152.2 233 C 150.2 233.7 148.8 235.5 148.6 237.5 M 166.4 199.4 C 164.1 199.4 162.3 201.2 162.3 203.5 C 162.3 205.8 164.2 207.6 166.4 207.6 C 168.7 207.6 170.5 205.8 170.5 203.5 C 170.5 201.2 168.7 199.4 166.4 199.4 M 250 164.9 C 203 164.9 164.9 203 164.9 250 C 164.9 297 203 335.1 250 335.1 C 297 335.1 335.1 297 335.1 250 C 335.1 203 297 164.9 250 164.9 M 185 171.3 C 183.3 172.7 182.7 174.8 184.1 176.5 C 186.5 179.4 191.1 175 192.7 176.9 C 193.5 177.8 193 178.7 192.1 179.5 C 191 180.4 190 180.3 188.8 179.7 L 187.8 181.6 C 189.5 182.5 191.7 182.2 193.2 180.9 C 195.3 179.2 195.7 177.2 194.1 175.2 C 191.6 172.1 186.9 176.5 185.6 174.8 C 185 174.1 185.3 173.3 186.1 172.6 C 187 171.9 187.9 171.9 188.8 172.4 L 190 170.5 C 188.5 169.8 186.6 170.1 185 171.3 M 192 166.1 L 193.1 167.8 L 195.8 166.1 L 201.4 174.9 L 203.4 173.6 L 197.8 164.8 L 200.5 163.1 L 199.4 161.4 L 192 166.1 Z M 207.5 157.2 C 204.4 158.6 203.7 161.5 205.4 165.1 C 207.1 168.8 209.7 170.1 212.8 168.7 C 215.9 167.3 216.6 164.4 214.9 160.8 C 213.2 157.2 210.6 155.8 207.5 157.2 M 217.9 153.2 L 221.2 165.1 L 223.3 164.5 L 221 156 L 228.2 163.1 L 230.4 162.5 L 227.1 150.6 L 225 151.2 L 227.3 159.3 L 220.3 152.5 L 217.9 153.2 Z M 232.4 149.6 L 236.7 156.5 L 237.3 161.4 L 239.6 161.1 L 239 156.2 L 241.4 148.4 L 239 148.7 L 237.5 153.8 L 234.8 149.2 L 232.4 149.6 Z M 252.8 160.5 L 257.3 160.9 C 260.4 161.2 261.9 159.9 262.1 158 C 262.3 156.1 261.8 155.3 260.2 154.6 C 261.6 154.2 262.2 153.2 262.3 151.9 C 262.3 149.7 260.8 148.7 258.4 148.5 L 253.8 148.1 L 252.8 160.5 Z M 266.2 161.9 L 268.5 162.4 L 269.6 157.5 L 271.6 158 L 272.7 163.4 L 275.3 164 L 273.9 158 C 275.5 157.9 276.5 156.9 276.8 155.4 C 277.2 153.4 276.5 151.6 273.8 150.9 L 269 149.8 L 266.2 161.9 Z M 280.8 159.2 C 279.3 163 280.1 165.8 283.3 167 C 286.4 168.3 289 166.8 290.5 163 C 292 159.2 291.2 156.4 288 155.2 C 284.8 154 282.3 155.5 280.8 159.2 M 294 164.9 C 291.9 168.4 292.3 171.3 295.2 173 C 298.1 174.7 300.9 173.6 302.9 170.2 C 305 166.7 304.6 163.8 301.7 162.1 C 298.8 160.3 296.1 161.4 294 164.9 M 310.8 168.2 L 303 177.8 L 304.8 179.3 L 307.1 176.4 L 309.8 175.8 L 308.5 182.3 L 310.5 184 L 312.2 175.4 L 318 174 L 315.9 172.3 L 309.2 174 L 312.7 169.7 L 310.8 168.2 Z M 333.6 199.4 C 331.3 199.4 329.5 201.2 329.5 203.5 C 329.5 205.8 331.3 207.6 333.6 207.6 C 335.9 207.6 337.7 205.8 337.7 203.5 C 337.8 201.2 335.9 199.4 333.6 199.4 M 338.3 234.8 L 338.6 237.6 L 344.6 241.1 L 339.1 241.7 L 339.4 244.1 L 351.9 242.7 L 351.6 240.3 L 347.8 240.7 L 345.4 239.2 L 351 235.4 L 350.7 232.8 L 343.4 237.8 L 338.3 234.8 Z M 250 143.4 C 308.9 143.4 356.6 191.1 356.6 250 C 356.6 308.9 308.9 356.6 250 356.6 C 191.1 356.6 143.4 308.9 143.4 250 C 143.4 191.1 191.1 143.4 250 143.4 M 343.2 251 C 342 251 341.4 251.7 341.4 253 L 341.3 255.2 L 344.9 255.3 L 345 253.5 C 344.9 251.6 344.4 251 343.2 251 M 153.3 260.6 L 153.7 263.5 L 159 261.4 L 153.3 260.6 Z M 220.7 336.6 L 218.6 335.9 L 217.5 339.3 L 219.2 339.9 C 221 340.5 221.7 340.1 222.1 339 C 222.4 337.8 222 337 220.7 336.6 M 282.5 335.3 C 280.7 336 280.3 337.7 281.4 340.5 C 282.4 343.3 283.8 344.3 285.7 343.6 C 287.5 342.9 287.9 341.2 286.8 338.4 C 285.7 335.7 284.3 334.6 282.5 335.3 M 344.6 264.7 C 341.7 264.2 340.1 264.8 339.7 266.7 C 339.3 268.6 340.7 269.8 343.5 270.3 C 346.4 270.9 348 270.2 348.4 268.3 C 348.8 266.4 347.5 265.2 344.6 264.7"/><path d="M 306.8 248.4 C 308.8 250.3 311.1 251.8 312.3 254.7 C 313.1 256.5 312.6 258.2 311.8 260.4 C 309.6 259.2 308.1 258.3 307.3 256.4 C 306.1 253.5 306.6 251 306.8 248.4 M 304.2 283.7 C 305.7 282 306.6 280.7 306.5 278.7 C 306.2 275.7 304.5 273.6 303.1 271.2 C 302.1 273.6 300.8 275.6 301 278.6 C 301.2 280.5 302.3 281.9 304.2 283.7 M 309.1 272.4 C 310.2 270.4 310.8 268.8 310.3 266.9 C 309.4 263.9 307.4 262.2 305.6 260.1 C 305.1 262.7 304.3 265 305.1 267.9 C 305.6 269.8 307 271 309.1 272.4 M 300.6 288.6 C 300.7 285.6 299.3 283.3 298.2 280.8 C 296.9 283 295.3 284.7 295.1 287.7 C 295 289.6 296 291.1 297.6 293.1 C 299.4 291.7 300.5 290.5 300.6 288.6 M 316.1 248.1 C 318.6 247.5 320.4 246.9 321.3 245.1 C 322.8 242.3 322.3 239.4 322.2 236.4 C 319.8 237.8 317.3 238.8 315.8 241.6 C 314.9 243.4 315.3 245.4 316.1 248.1 M 316 255.5 C 314.7 257.1 314.8 259 315.2 261.8 C 317.8 261.7 319.7 261.4 320.9 259.9 C 322.8 257.5 322.8 254.6 323.3 251.7 C 320.6 252.6 317.9 253.1 316 255.5 M 312.1 241.3 C 310.4 238.7 308 237.6 305.7 236.1 C 306.1 238.8 306 241.4 307.7 244 C 308.8 245.7 310.4 246.4 312.8 247.1 C 313.1 244.7 313.2 243 312.1 241.3 M 295.8 300.6 C 293.8 300.9 292.7 302.4 291.3 304.6 C 293.6 306.2 295.4 307.2 297.4 306.8 C 300.5 306.3 302.2 304.2 304.4 302.4 C 301.6 301.5 299 300.1 295.8 300.6 M 303.9 291.5 C 302 292.1 301.1 293.7 300 296.1 C 302.5 297.4 304.3 298.2 306.2 297.6 C 309.2 296.7 310.6 294.4 312.5 292.3 C 309.7 291.6 306.9 290.6 303.9 291.5 M 310 280.7 C 308.2 281.6 307.6 283.4 307 286 C 309.6 286.9 311.5 287.3 313.3 286.4 C 316.1 284.9 317 282.3 318.5 279.9 C 315.6 279.8 312.7 279.2 310 280.7 M 312.1 274.4 C 314.8 274.8 316.7 274.9 318.2 273.6 C 320.6 271.6 321 268.8 322 266.1 C 319.2 266.6 316.4 266.5 314 268.5 C 312.5 269.8 312.2 271.7 312.1 274.4 M 281.2 311.4 C 283.3 313.4 284.8 314.6 286.9 314.7 C 290.1 314.8 292.2 313 294.6 311.7 C 291.9 310.3 289.5 308.5 286.3 308.4 C 284.3 308.3 282.9 309.5 281.2 311.4 M 274.3 312.4 C 282.1 309.2 289 304.6 295 298.6 C 302.4 291.2 307.9 282.2 311.2 271.8 C 314.6 261.1 315.6 249.5 314.1 237.3 C 315.4 235.5 316.1 234 315.8 232 C 315.2 228.6 313.1 226.4 311.4 223.8 C 310.5 226.6 309.2 229 309.7 232.4 C 310 234.5 311.4 235.9 313.5 237.7 C 316.4 261.6 309.7 283.1 294.6 298.1 C 288.8 303.9 281.9 308.4 274.4 311.6 L 274.4 312.4 L 274.3 312.4 Z M 293.1 297.7 C 293.8 294.9 292.7 292.4 292.1 289.7 C 290.4 291.5 288.4 292.9 287.8 295.8 C 287.4 297.6 288.1 299.3 289.3 301.5 C 291.3 300.4 292.6 299.5 293.1 297.7 M 284 305.2 C 285.2 302.6 284.5 300 284.4 297.3 C 282.4 298.7 280.2 299.7 279 302.3 C 278.3 304 278.7 305.7 279.6 308.1 C 281.8 307.5 283.2 306.9 284 305.2 M 237.6 319.9 L 237.6 318.7 L 238.9 318.7 L 238.9 312.7 L 237.4 312.7 L 237.4 311.7 C 238.2 311.7 238.9 311.5 239.3 311.1 L 240.5 311.1 L 240.5 318.7 L 241.8 318.7 L 241.8 319.9 L 237.6 319.9 Z M 246.1 315.5 C 245.1 315.5 244.6 314.9 244.6 313.9 C 244.6 313 245.2 312.4 246 312.4 C 246.8 312.4 247.7 313 247.7 314.5 C 247.3 315.2 246.8 315.5 246.1 315.5 M 243.3 319.4 C 244 319.8 244.6 320.1 245.5 320.1 C 247.9 320.1 249.2 318.1 249.2 315.1 C 249.2 312.4 247.9 311.1 246.1 311.1 C 244.4 311.1 243 312.1 243 314 C 243 315.7 244.1 316.8 245.7 316.8 C 246.5 316.8 247.1 316.6 247.7 316.1 C 247.7 317.6 246.7 318.8 245.5 318.8 C 244.9 318.8 244.4 318.5 244 318.2 L 243.3 319.4 Z M 250.9 315.9 L 252.2 316.1 C 252.4 315.7 252.9 315.4 253.5 315.4 C 254.4 315.4 255 316.1 255 317 C 255 318.1 254.5 318.8 253.4 318.8 C 252.8 318.8 252.1 318.4 251.9 317.8 L 250.6 318.5 C 251.1 319.5 252 320.1 253.4 320.1 C 255.5 320.1 256.6 318.9 256.6 317 C 256.6 315.6 255.6 314.1 254 314.1 C 253.1 314.1 252.7 314.3 252.4 314.6 L 252.5 312.6 L 256 312.6 L 256 311.3 L 251.3 311.3 L 250.9 315.9 Z M 257.7 312.6 L 261.9 312.6 L 258.4 320 L 260.1 320 L 263.7 312.2 L 263.7 311.3 L 257.7 311.3 L 257.7 312.6 Z M 211 190.5 C 211.7 190.2 212.6 190.5 212.9 191.2 C 213.2 191.9 212.9 192.8 212.2 193.1 C 211.5 193.4 210.6 193.1 210.3 192.4 C 209.9 191.7 210.2 190.8 211 190.5 M 220.3 191.6 L 219.9 190.5 L 217.7 191.2 L 217 189.2 L 218.6 188.7 L 218.2 187.6 L 216.6 188.1 L 216 186.3 L 218 185.6 L 217.6 184.5 L 214.4 185.6 L 216.8 192.7 L 220.3 191.6 Z M 225.1 184.3 C 224.7 183.3 223.9 182.7 222.9 183 C 221.7 183.3 221.1 184.1 221.4 185.3 C 221.9 187.4 224.5 187.1 224.9 188.5 C 225 188.9 224.8 189.2 224.3 189.3 C 223.9 189.4 223.5 189.1 223.3 188.4 L 222.3 188.9 C 222.6 190 223.5 190.7 224.7 190.4 C 225.9 190.1 226.5 189.2 226.2 188 C 225.7 186 223 186.1 222.7 184.9 C 222.6 184.4 222.7 184.1 223.1 184 C 223.4 183.9 223.8 184 224 184.6 L 225.1 184.3 Z M 230.2 189.1 L 231.5 188.9 L 230.4 182.7 L 231.6 182.5 L 231.4 181.4 L 227.7 182.1 L 227.9 183.2 L 229 182.9 L 230.2 189.1 Z M 236.1 182.2 L 237 185.3 L 236 185.4 L 236.1 182.2 Z M 235.9 186.5 L 237.3 186.3 L 237.7 187.9 L 238.9 187.8 L 236.6 180.6 L 235 180.8 L 234.5 188.4 L 235.7 188.3 L 235.9 186.5 Z M 242.7 184.2 L 243.1 184.2 C 243.9 184.2 244.2 184.5 244.2 185.3 C 244.2 186.1 244 186.5 243.3 186.5 L 242.8 186.5 L 242.7 184.2 Z M 242.6 181.1 L 243.1 181.1 C 243.7 181.1 244 181.4 244 182.1 C 244 182.7 243.7 183.1 243.2 183.1 L 242.7 183.1 L 242.6 181.1 Z M 241.7 187.6 L 243.7 187.5 C 245.2 187.4 245.6 186.5 245.6 185.2 C 245.5 184.2 245.1 183.7 244.5 183.5 C 245.1 183.2 245.3 182.5 245.3 181.9 C 245.2 180.6 244.6 180 243.2 180 L 241.3 180.1 L 241.7 187.6 Z M 252 187.3 L 252 186.2 L 250 186.2 L 250 179.9 L 248.7 179.9 L 248.6 187.4 L 252 187.3 Z M 254.9 187.4 L 256.2 187.5 L 256.6 180.1 L 255.3 180 L 254.9 187.4 Z M 263.7 182.3 C 263.7 181.2 263.2 180.4 262.1 180.3 C 260.8 180.2 260.1 180.8 259.9 181.9 C 259.7 184 262.2 184.7 262.1 186.2 C 262.1 186.6 261.7 186.8 261.3 186.8 C 260.9 186.8 260.6 186.4 260.7 185.6 L 259.5 185.7 C 259.4 186.8 260 187.8 261.2 188 C 262.4 188.1 263.3 187.5 263.4 186.3 C 263.6 184.3 261.1 183.4 261.2 182.1 C 261.2 181.6 261.5 181.4 261.9 181.4 C 262.2 181.4 262.5 181.6 262.5 182.3 L 263.7 182.3 Z M 267.3 188.7 L 267.9 185.4 L 269.2 185.6 L 268.6 188.9 L 269.9 189.1 L 271.2 181.7 L 269.9 181.5 L 269.4 184.5 L 268.1 184.3 L 268.6 181.3 L 267.3 181.1 L 266 188.5 L 267.3 188.7 Z M 276.6 190.6 L 276.9 189.5 L 274.7 189 L 275.2 186.9 L 276.8 187.3 L 277.1 186.2 L 275.5 185.8 L 276 183.9 L 278.1 184.4 L 278.4 183.3 L 275.1 182.5 L 273.3 189.7 L 276.6 190.6 Z M 282.6 185.8 L 283 185.9 C 283.6 186.1 283.8 186.4 283.5 187.2 L 282.4 190.3 C 282.1 191 281.8 191.2 281.2 191 L 280.8 190.9 L 282.6 185.8 Z M 279.4 191.4 L 281.2 192 C 282.5 192.4 283.3 192 283.8 190.5 L 284.8 187.7 C 285.3 186.3 284.9 185.3 283.6 184.9 L 281.8 184.3 L 279.4 191.4 Z M 289 190.5 C 288.3 190.2 287.4 190.5 287.1 191.2 C 286.8 191.9 287.1 192.8 287.8 193.1 C 288.5 193.4 289.4 193.1 289.7 192.4 C 290.1 191.7 289.8 190.8 289 190.5 M 192.7 256.4 C 191.9 258.3 190.4 259.2 188.2 260.4 C 187.4 258.2 186.9 256.6 187.7 254.7 C 188.9 251.8 191.1 250.3 193.2 248.4 C 193.4 251 193.9 253.5 192.7 256.4 M 190.9 272.4 C 193 271 194.4 269.9 195 267.9 C 195.9 264.9 195 262.6 194.5 260.1 C 192.7 262.2 190.6 264 189.8 266.9 C 189.2 268.8 189.8 270.3 190.9 272.4 M 187.9 241.3 C 186.8 243 186.9 244.7 187.3 247.1 C 189.7 246.4 191.3 245.7 192.4 244 C 194.1 241.4 194 238.8 194.4 236.1 C 192 237.6 189.6 238.7 187.9 241.3 M 195.8 283.7 C 197.6 281.9 198.8 280.5 199 278.6 C 199.3 275.6 197.9 273.6 196.9 271.2 C 195.5 273.6 193.8 275.7 193.5 278.7 C 193.4 280.6 194.3 281.9 195.8 283.7 M 202.4 293.1 C 204 291.1 205 289.6 204.9 287.7 C 204.8 284.7 203.1 282.9 201.8 280.8 C 200.7 283.4 199.3 285.7 199.4 288.6 C 199.5 290.5 200.6 291.7 202.4 293.1 M 220.5 308.1 C 221.4 305.7 221.8 304 221.1 302.3 C 219.9 299.7 217.7 298.7 215.7 297.3 C 215.5 300 214.9 302.6 216.1 305.2 C 216.8 306.9 218.2 307.5 220.5 308.1 M 210.7 301.5 C 211.9 299.3 212.7 297.6 212.2 295.8 C 211.5 293 209.6 291.6 207.9 289.7 C 207.3 292.4 206.2 294.8 206.9 297.7 C 207.4 299.5 208.7 300.4 210.7 301.5 M 213.7 308.4 C 210.5 308.5 208.1 310.3 205.4 311.7 C 207.8 313 209.9 314.8 213.1 314.7 C 215.2 314.7 216.8 313.4 218.8 311.4 C 217.1 309.5 215.8 308.4 213.7 308.4 M 193 286 C 192.4 283.4 191.8 281.7 190 280.7 C 187.3 279.2 184.4 279.8 181.5 279.9 C 183 282.3 183.9 284.9 186.7 286.4 C 188.5 287.3 190.4 286.9 193 286 M 196.1 291.5 C 193.1 290.6 190.4 291.7 187.5 292.3 C 189.4 294.4 190.8 296.7 193.8 297.6 C 195.7 298.2 197.5 297.4 200 296.1 C 198.9 293.6 198 292.1 196.1 291.5 M 204.2 300.6 C 201.1 300.1 198.4 301.5 195.6 302.4 C 197.7 304.2 199.4 306.3 202.6 306.8 C 204.6 307.1 206.3 306.2 208.7 304.6 C 207.3 302.4 206.2 301 204.2 300.6 M 183.9 248.1 C 184.7 245.4 185.1 243.5 184.1 241.7 C 182.6 238.9 180.1 238 177.7 236.5 C 177.7 239.5 177.2 242.4 178.6 245.2 C 179.7 246.9 181.4 247.5 183.9 248.1 M 187.9 274.4 C 187.8 271.7 187.5 269.8 186 268.5 C 183.6 266.5 180.8 266.5 178 266.1 C 179 268.8 179.4 271.6 181.8 273.6 C 183.3 274.9 185.2 274.8 187.9 274.4 M 188.9 271.9 C 192.2 282.3 197.6 291.3 205.1 298.7 C 211.1 304.6 218 309.3 225.8 312.5 L 225.8 311.7 C 218.3 308.5 211.4 304 205.6 298.2 C 190.5 283.2 183.8 261.7 186.7 237.8 C 188.8 236 190.1 234.6 190.5 232.5 C 191.1 229.1 189.7 226.7 188.8 223.9 C 187 226.5 184.9 228.7 184.4 232.1 C 184.1 234.1 184.8 235.6 186.1 237.4 C 184.5 249.6 185.5 261.2 188.9 271.9 M 184.8 261.8 C 185.2 259 185.2 257.1 184 255.5 C 182.1 253.1 179.3 252.6 176.7 251.6 C 177.2 254.5 177.1 257.4 179.1 259.8 C 180.4 261.4 182.2 261.7 184.8 261.8"/></g></svg>